# xmcd CD database file
#
# Track frame offsets:
#	150
#	17010
#	33074
#	52908
#	72618
#	87109
#	105351
#	117487
#	131316
#	142555
#	155441
#	168359
#
# Disc length: 2537 seconds
#
# Revision: 5
# Processed by: cddbd v1.5.2PL0 Copyright (c) Steve Scherf et al.
# Submitted via: CDex 1.91
#
DISCID=8909e70c
DTITLE=Calypso Rose - Far From Home
DYEAR=2016
DGENRE=Calypso
TTITLE0=Abatina
TTITLE1=I am African
TTITLE2=Leave Me Alone Feat. Manu Chao
TTITLE3=Far From Home
TTITLE4=Calypso Queen
TTITLE5=Zoom Zoom Zoom
TTITLE6=Trouble
TTITLE7=Love Me Or Leave Me
TTITLE8=No Madame
TTITLE9=Woman Smarter
TTITLE10=Human Race
TTITLE11=Wah Fu Dance !
EXTD=YEAR: 2016
EXTT0=
EXTT1=
EXTT2=
EXTT3=
EXTT4=
EXTT5=
EXTT6=
EXTT7=
EXTT8=
EXTT9=
EXTT10=
EXTT11=
PLAYORDER=
